<svg xmlns="http://www.w3.org/2000/svg" width="32" height="32" fill="currentColor" viewBox="0 0 32 32">
  <path fill="currentColor" d="M0 16C0 7.164 7.164 0 16 0s16 7.164 16 16-7.164 16-16 16S0 24.836 0 16ZM15 2.152c-1.34.41-2.672 1.641-3.773 3.711A16.248 16.248 0 0 0 10.289 8H15ZM8.18 8a18.28 18.28 0 0 1 1.28-3.078c.345-.652.747-1.277 1.192-1.867A14.045 14.045 0 0 0 4.512 8Zm-1.164 7c.058-1.754.277-3.438.625-5H3.348a13.906 13.906 0 0 0-1.313 5Zm2.68-5a24.837 24.837 0 0 0-.676 5H15v-5ZM17 10v5h5.98a24.837 24.837 0 0 0-.675-5Zm-7.98 7c.054 1.684.28 3.36.675 5H15v-5ZM17 17v5h5.305a24.73 24.73 0 0 0 .675-5Zm-6.71 7c.276.773.589 1.488.937 2.137 1.101 2.07 2.433 3.3 3.773 3.71V24Zm.362 4.945a13.737 13.737 0 0 1-1.191-1.867A18.28 18.28 0 0 1 8.18 24H4.512a14.045 14.045 0 0 0 6.14 4.945ZM7.641 22a27.267 27.267 0 0 1-.625-5h-4.98a13.863 13.863 0 0 0 1.312 5Zm13.707 6.945A14.045 14.045 0 0 0 27.488 24H23.82a18.28 18.28 0 0 1-1.28 3.078 13.737 13.737 0 0 1-1.192 1.867ZM17 24v5.848c1.34-.41 2.672-1.641 3.773-3.711.348-.649.66-1.364.938-2.137Zm7.36-2h4.292a13.863 13.863 0 0 0 1.313-5h-4.98a27.267 27.267 0 0 1-.626 5Zm5.605-7a13.906 13.906 0 0 0-1.313-5H24.36c.348 1.563.567 3.246.625 5ZM22.539 4.922c.496.93.926 1.96 1.281 3.078h3.668a14.045 14.045 0 0 0-6.14-4.945c.433.57.836 1.199 1.191 1.867ZM21.711 8a16.248 16.248 0 0 0-.938-2.137c-1.101-2.07-2.433-3.3-3.773-3.71V8Z" />
</svg>
